<?xml version="1.0" encoding="utf-8"?>
<!-- Generator: Adobe Illustrator 26.0.0, SVG Export Plug-In . SVG Version: 6.00 Build 0)  -->
<svg version="1.1" id="Layer_1" xmlns="http://www.w3.org/2000/svg" xmlns:xlink="http://www.w3.org/1999/xlink" x="0px" y="0px"
	 viewBox="0 0 1080 1080" style="enable-background:new 0 0 1080 1080;" xml:space="preserve">
<style type="text/css">
	.st0{fill:#fff;}
</style>
<g>
	<path class="st0" d="M231.63,383.61c1-5.03,1.88-10.1,3.03-15.1c13.73-59.96,64.26-101.23,126.5-101.5
		c117.41-0.51,234.83-0.49,352.25-0.01c64.99,0.26,116.4,44.32,127.99,108.3c1.34,7.39,1.69,15.04,1.71,22.57
		c0.14,53.93,0.13,107.86,0.06,161.8c-0.09,65.47-45.19,118.71-109.66,129.27c-7.81,1.28-15.85,1.52-23.79,1.53
		c-64.88,0.12-129.76,0.02-194.63,0.19c-3.34,0.01-7.12,1.03-9.95,2.78c-62.59,38.66-125.04,77.54-187.67,116.12
		c-3.36,2.07-8.26,3.19-12.09,2.58c-5.57-0.89-7.68-6.76-6.01-13.45c7.87-31.41,15.8-62.81,23.7-94.22
		c1.49-5.94,2.94-11.88,4.5-18.21c-3.57-1.17-6.81-2.05-9.9-3.28c-48.25-19.1-76.88-54.02-84.95-105.5
		c-0.21-1.35-0.71-2.65-1.08-3.97C231.63,510.23,231.63,446.92,231.63,383.61z M325.48,780.13c2.8-1.62,4.5-2.55,6.15-3.58
		c54.75-33.97,109.53-67.89,164.17-102.02c5.49-3.43,10.94-4.88,17.35-4.86c65.48,0.15,130.96,0.19,196.45-0.02
		c9.1-0.03,18.4-0.61,27.24-2.56c51.4-11.36,85.49-54.62,85.63-108.33c0.14-53.34,0.07-106.68-0.03-160.02
		c-0.01-6.35-0.28-12.79-1.36-19.03c-9.51-54.96-53.2-91.8-109.04-91.84c-116.43-0.09-232.87-0.06-349.3,0.06
		c-7.71,0.01-15.59,0.48-23.12,2.04c-51.6,10.67-86.9,53.82-87.22,107.01c-0.33,54.73-0.11,109.47,0,164.2
		c0.01,5.74,0.46,11.57,1.46,17.22c8.22,46.35,40.36,79.5,86.4,89.36c9.06,1.94,11.87,6.43,9.6,15.45
		c-5,19.85-10.05,39.68-15.05,59.52C331.76,754.8,328.78,766.88,325.48,780.13z"/>
	<path class="st0" d="M484.71,441.29c0,2.08,0,4.16,0,6.24c0,26.27,0,52.54,0,78.81c0,1.79,0.11,3.6-0.13,5.36
		c-0.77,5.56-4.89,8.97-10.28,8.65c-5.12-0.3-8.59-3.81-8.7-9.48c-0.19-10.15-0.08-20.3-0.08-30.45c0-24.88-0.02-49.75,0.01-74.63
		c0.01-9.14,3.58-14.49,10.4-15.84c11.06-2.2,17.97,0.83,21.61,9.87c12.12,30.03,24.13,60.1,36.19,90.15
		c0.8,2.01,1.66,3.99,2.95,7.06c1.29-3.02,2.21-5.05,3.04-7.12c11.92-29.68,24.07-59.27,35.63-89.09
		c4.43-11.43,12.82-12.84,23.87-10.19c5.71,1.37,8.65,6.28,8.66,12.26c0.07,35.82,0.09,71.64,0.01,107.46
		c-0.01,6.19-3.89,10.02-9.46,10.02c-5.78,0-9.59-3.97-9.61-10.52c-0.07-27.46-0.03-54.93-0.05-82.39c0-2.08-0.18-4.17-1.72-6.71
		c-0.97,1.93-2.09,3.8-2.9,5.79c-11.2,27.61-22.4,55.23-33.5,82.88c-2.3,5.72-5.56,10.1-12.16,10.85
		c-7.3,0.83-12.26-2.39-15.47-10.29c-11.22-27.61-22.36-55.24-33.55-82.86c-0.86-2.13-1.84-4.2-2.77-6.3
		C486.04,440.98,485.37,441.13,484.71,441.29z"/>
	<path class="st0" d="M393.44,541.38c-13.88-0.11-27.27-2.71-40.11-7.99c-6.61-2.72-9.22-7.66-7.02-12.96
		c2.11-5.08,7.01-6.56,13.65-3.9c14.52,5.82,29.48,8.3,44.99,5.58c4.02-0.71,8.23-2.04,11.64-4.2c10.27-6.48,9.65-20.33-1.34-25.35
		c-7.17-3.27-15.04-5-22.58-7.46c-8.49-2.78-17.2-5.02-25.37-8.55c-12.15-5.25-20.12-14.23-20.41-28.25
		c-0.29-13.9,5.46-25.18,17.58-31.69c7.33-3.93,15.92-6.39,24.21-7.45c13.72-1.75,27.39,0.4,40.58,4.81
		c7.03,2.35,9.65,6.75,7.65,12.46c-1.76,5.04-6.16,6.66-12.88,4.58c-12.51-3.86-25.21-5.85-38.22-3.2
		c-3.84,0.78-7.71,2.1-11.16,3.94c-5.67,3.02-8.73,7.97-8.54,14.62c0.18,6.61,3.93,11.01,9.64,13.13
		c8.16,3.03,16.69,5.07,24.99,7.75c8.11,2.62,16.6,4.6,24.09,8.47c22.79,11.79,24.26,41.76,3.19,56.46
		C418.91,538.54,407.86,541.47,393.44,541.38z"/>
	<path class="st0" d="M679.99,542.74c-13.99-1.48-27.17-4.1-39.84-9.2c-6.84-2.75-9.48-7.4-7.45-12.73
		c2.11-5.53,6.85-7.02,13.93-4.21c14.52,5.78,29.48,8.28,44.96,5.46c4.36-0.8,8.97-2.43,12.54-4.98c9.25-6.62,8.3-19.54-1.95-24.32
		c-7.13-3.33-14.99-5.1-22.52-7.57c-8.48-2.77-17.19-4.99-25.38-8.44c-12.43-5.22-20.64-14.3-20.92-28.5
		c-0.28-14.34,5.99-25.65,18.62-32.3c6.52-3.43,14.08-5.67,21.4-6.63c14.96-1.96,29.75,0.11,43.99,5.28
		c5.69,2.06,7.89,6.57,6.1,11.73c-1.65,4.77-5.97,6.76-11.66,5.01c-12.88-3.96-25.94-6.36-39.33-3.52
		c-4.56,0.97-9.33,2.59-13.12,5.21c-10,6.91-9.13,20.22,1.66,25.79c5.23,2.7,11.08,4.26,16.75,6c9.48,2.91,19.24,5.01,28.52,8.44
		c14.34,5.31,23.11,15.53,22.92,31.44c-0.18,15.68-8.65,26.36-22.86,31.73C697.98,539.6,688.81,540.71,679.99,542.74z"/>
</g>
</svg>
