<?xml version="1.0" encoding="utf-8"?>
<!-- Generator: Adobe Illustrator 26.0.0, SVG Export Plug-In . SVG Version: 6.00 Build 0)  -->
<svg version="1.1" id="Layer_1" xmlns="http://www.w3.org/2000/svg" xmlns:xlink="http://www.w3.org/1999/xlink" x="0px" y="0px"
	 viewBox="0 0 1080 1080" style="enable-background:new 0 0 1080 1080;" xml:space="preserve">
<style type="text/css">
	.st0{fill:#45AC4D;}
</style>
<g>
	<path class="st0" d="M264.6,523.47c0.98-2.99,1.87-6.03,2.97-8.98c6.45-17.38,22.66-29.24,41.16-29.41
		c29.31-0.26,58.62-0.11,87.92-0.11c91.65-0.01,183.31-0.02,274.96,0.01c23.51,0.01,41.38,13.57,46.51,35.22
		c0.73,3.09,1.01,6.28,1.61,10.1c5.67,0,11.3-0.01,16.94,0c3.73,0.01,2.97-2.83,3.03-4.96c0.47-16.87,0.86-33.74,1.31-50.6
		c1.58-58.41,3.47-116.82,4.6-175.24c0.32-16.37,6.26-27.56,22.04-32.88c4.26,0,8.53,0,12.79,0c0.74,0.4,1.44,0.89,2.22,1.18
		c12.23,4.49,18.82,13.64,19.16,26.6c0.31,11.72,0.67,23.44,1,35.15c1.29,46.34,2.58,92.68,3.85,139.02
		c1.21,44.21,2.45,88.42,3.56,132.63c0.3,11.93-7.08,19.92-18.57,20.14c-11.9,0.22-23.8,0.17-35.7,0.01
		c-7.07-0.1-12.73-3.19-16.1-9.56c-1.36-2.57-2.02-5.52-2.98-8.23c-5.74,0-11.34,0-17.46,0c0,2.41,0,4.5,0,6.59
		c0,50.8,0.04,101.6-0.06,152.4c-0.01,4.94-0.29,10.01-1.43,14.78c-5.07,21.31-22.96,34.96-45.61,34.97
		c-92.54,0.04-185.08,0.02-277.63,0.02c-28.06,0-56.13,0.1-84.19-0.04c-21.95-0.11-39.56-14.22-44.8-35.47
		c-0.24-0.98-0.73-1.91-1.1-2.86C264.6,690.45,264.6,606.96,264.6,523.47z M492.01,503.14c-59.49,0-118.99,0-178.48,0
		c-20.05,0-30.76,10.8-30.76,31c0,76.37-0.01,152.73,0,229.1c0,20.02,10.9,30.9,30.94,30.9c118.81,0,237.62,0,356.43,0
		c20.09,0,31.07-10.86,31.07-30.82c0.02-76.54,0.02-153.09,0-229.63c-0.01-19.72-10.93-30.54-30.72-30.55
		C611,503.14,551.5,503.14,492.01,503.14z M791.95,602.92c0-2.3,0.04-4.05-0.01-5.81c-2.12-78.82-4.25-157.65-6.39-236.47
		c-0.59-21.84-1.24-43.67-1.89-65.51c-0.19-6.31-3.53-10.03-9.11-10.33c-6.18-0.33-10.09,3.36-10.29,10.14
		c-0.82,27.51-1.56,55.03-2.31,82.55c-2.01,73.14-4.02,146.28-6.02,219.42c-0.05,1.9-0.01,3.81-0.01,6.01
		C768.04,602.92,779.67,602.92,791.95,602.92z M738.23,549c-6.16,0-12.25,0-18.35,0c0,12.15,0,23.88,0,35.65c6.21,0,11.95,0,18.35,0
		C738.23,572.64,738.23,561.01,738.23,549z"/>
	<path class="st0" d="M636.63,371.77c-2.3,2.84-3.85,6.39-6.43,7.47c-2.59,1.09-6.37,0.19-9.32-0.77c-1.76-0.57-3-2.89-4.37-4.51
		c-64.67-76.42-179.14-78.67-246.88-4.83c-2.28,2.48-4.32,5.18-6.59,7.67c-4.07,4.48-9.11,5.14-13.17,1.84
		c-4.16-3.38-4.47-8.84-0.55-13.69c19.57-24.23,43.7-42.51,72.52-54.25c74.38-30.3,157.75-9.35,209.18,52.36
		C632.98,365.44,634.4,368.28,636.63,371.77z"/>
	<path class="st0" d="M498.02,351.67c32.74,0.76,65.58,16.04,91.29,46.39c4.5,5.31,4.58,10.38,0.42,14.12
		c-4.4,3.96-9.5,3.2-14.24-2.35c-22.81-26.7-51.65-40.5-86.87-39.85c-31.86,0.59-58.31,13.45-79.66,36.99
		c-1.19,1.31-2.25,2.75-3.48,4.03c-3.98,4.15-8.83,4.67-12.81,1.43c-4.12-3.35-4.59-8.59-0.9-13.23
		c9.02-11.37,19.75-20.86,32.12-28.46C444.49,358.11,466.86,351.64,498.02,351.67z"/>
	<path class="st0" d="M551.14,439.87c-2.29,2.76-3.88,6.3-6.47,7.34c-2.61,1.05-6.32-0.03-9.35-0.88c-1.46-0.41-2.48-2.42-3.67-3.73
		c-22.01-24.3-58.88-24.42-81.04-0.25c-6.29,6.86-11.14,7.97-15.7,3.6c-4.5-4.31-3.72-9.32,2.51-16.16
		c29.22-32.07,79.89-31.51,108.23,1.28C547.65,433.39,548.95,436.32,551.14,439.87z"/>
	<path class="st0" d="M382.85,721.47c3.02,0,6.04-0.08,9.05,0.01c10.29,0.34,17.43,6.93,18.07,17.21c0.41,6.54,0.4,13.15,0.02,19.69
		c-0.6,10.42-7.96,17.3-18.4,17.57c-5.85,0.15-11.72,0.15-17.57,0c-10.38-0.28-17.81-7.25-18.42-17.61
		c-0.38-6.37-0.36-12.79-0.03-19.16c0.54-10.46,7.83-17.36,18.23-17.7C376.81,721.39,379.83,721.47,382.85,721.47z M391.63,739.99
		c-6.27,0-11.84,0-17.5,0c0,6.08,0,11.81,0,17.47c6.07,0,11.66,0,17.5,0C391.63,751.5,391.63,745.91,391.63,739.99z"/>
	<path class="st0" d="M501.13,747.96c-1.63-20.24,6.82-28.07,26.44-26.55c3.53,0.27,7.1-0.06,10.65,0.11
		c9.75,0.47,17.01,7.7,17.32,17.42c0.21,6.38,0.19,12.78,0.01,19.17c-0.27,9.88-7.64,17.37-17.63,17.79
		c-6.38,0.27-12.79,0.28-19.17,0c-10.2-0.44-17.37-8.07-17.6-18.36C501.08,754.35,501.14,751.16,501.13,747.96z M537.17,740
		c-6.06,0-11.77,0-17.45,0c0,6.08,0,11.8,0,17.53c6.01,0,11.59,0,17.45,0C537.17,751.67,537.17,746.09,537.17,740z"/>
	<path class="st0" d="M601.2,721.55c3.55,0,7.11-0.2,10.65,0.04c8.73,0.59,15.8,7.42,16.26,16.12c0.38,7.26,0.38,14.56,0,21.82
		c-0.46,8.82-7.6,15.78-16.73,16.31c-6.72,0.4-13.5,0.37-20.23,0.03c-9.68-0.49-16.89-7.9-17.3-17.61
		c-0.27-6.38-0.26-12.79-0.01-19.17c0.4-10.03,7.76-17.19,17.77-17.59c3.19-0.13,6.39-0.02,9.59-0.02
		C601.2,721.5,601.2,721.53,601.2,721.55z M609.82,739.93c-6.07,0-11.67,0-17.49,0c0,6.02,0,11.74,0,17.59c6,0,11.59,0,17.49,0
		C609.82,751.62,609.82,746.02,609.82,739.93z"/>
	<path class="st0" d="M428.4,748.2c0.01-2.84-0.08-5.68,0.02-8.52c0.38-10.8,7.44-17.92,18.18-18.2c6.03-0.15,12.07-0.15,18.11,0.01
		c10.36,0.28,17.72,7.4,18.18,17.74c0.28,6.2,0.26,12.43,0.01,18.64c-0.43,10.51-7.97,17.79-18.55,18.07
		c-5.5,0.15-11.01,0.09-16.51,0.02c-11.89-0.14-19.17-7.37-19.43-19.25C428.34,753.89,428.39,751.04,428.4,748.2z M464.56,739.92
		c-6.16,0-11.76,0-17.58,0c0,6.01,0,11.72,0,17.4c6.12,0,11.83,0,17.58,0C464.56,751.37,464.56,745.91,464.56,739.92z"/>
	<path class="st0" d="M491.38,539.46c-8.51,0-17.02,0.07-25.52-0.02c-6.13-0.07-10.31-3.87-10.29-9.11
		c0.02-5.25,4.18-8.97,10.37-8.99c17.37-0.06,34.74-0.07,52.11,0c6.31,0.02,10.19,3.61,10.16,9.07c-0.02,5.45-3.91,8.97-10.24,9.03
		C509.11,539.52,500.25,539.46,491.38,539.46z"/>
	<path class="st0" d="M492.43,548.83c3.36,0,6.77-0.33,10.08,0.08c4.65,0.58,7.22,3.62,7.44,8.29c0.22,4.65-2,8.52-6.56,8.92
		c-7.53,0.67-15.2,0.64-22.74,0.03c-4.63-0.37-6.75-4.31-6.81-8.83c-0.06-4.37,3.37-8.05,7.97-8.48c3.51-0.33,7.08-0.07,10.62-0.07
		C492.43,548.79,492.43,548.81,492.43,548.83z"/>
</g>
</svg>
